<?xml version="1.0" standalone="no"?>
<!DOCTYPE svg PUBLIC "-//W3C//DTD SVG 20010904//EN"
 "http://www.w3.org/TR/2001/REC-SVG-20010904/DTD/svg10.dtd">
<svg version="1.0" xmlns="http://www.w3.org/2000/svg"
 width="1280.000000pt" height="895.000000pt" viewBox="0 0 1280.000000 895.000000"
 preserveAspectRatio="xMidYMid meet">
<metadata>
Created by potrace 1.15, written by Peter Selinger 2001-2017
</metadata>
<g transform="translate(0.000000,895.000000) scale(0.100000,-0.100000)"
fill="#000000" stroke="none">
<path d="M6148 8783 c-75 -157 -138 -317 -138 -353 0 -10 -4 -21 -9 -24 -10
-7 -30 149 -32 252 -1 39 -3 72 -5 72 -1 0 -11 -15 -23 -33 -11 -18 -27 -75
-36 -132 -13 -79 -25 -114 -55 -167 -49 -86 -64 -132 -56 -171 5 -31 5 -31
-10 -12 -9 11 -29 48 -45 83 -19 43 -34 62 -44 60 -13 -3 -16 -38 -17 -245 -1
-134 -6 -243 -11 -243 -5 0 -51 23 -104 51 l-95 52 15 -30 c9 -17 14 -39 11
-50 -4 -14 18 -45 84 -119 48 -54 118 -144 154 -199 86 -133 136 -194 253
-317 l98 -103 -84 -77 c-46 -43 -87 -78 -91 -78 -4 0 -8 13 -8 29 0 17 -12 67
-26 112 -14 45 -40 139 -58 208 -42 161 -56 168 -81 41 -10 -49 -21 -90 -25
-90 -4 0 -10 18 -14 40 -5 32 -21 56 -76 113 -53 56 -79 95 -113 168 -24 52
-56 105 -71 118 -31 29 -31 33 -7 -77 11 -48 23 -118 26 -157 l6 -70 -23 39
c-39 66 -162 226 -253 329 -67 76 -90 95 -100 87 -15 -12 -12 -20 75 -275 62
-183 99 -320 107 -401 l6 -60 -50 0 c-34 0 -62 -7 -88 -22 -36 -22 -38 -22
-51 -5 -36 46 -108 320 -160 607 -18 96 -35 127 -54 96 -22 -35 -79 -396 -80
-500 l-1 -75 -18 35 c-11 20 -35 83 -55 140 -50 146 -47 140 -58 105 -5 -16
-6 -84 -2 -150 5 -103 3 -131 -15 -198 -20 -76 -20 -117 1 -162 5 -11 -22 12
-59 52 -94 99 -106 90 -64 -48 17 -57 42 -153 56 -213 14 -60 30 -117 36 -128
6 -11 8 -22 5 -26 -3 -3 -50 4 -103 16 -121 27 -121 27 -94 -2 13 -14 20 -29
17 -34 -8 -14 50 -63 136 -114 40 -24 100 -68 133 -99 33 -30 89 -79 125 -109
l65 -53 -37 7 c-57 10 -200 71 -326 137 -63 32 -118 57 -123 53 -22 -13 -3
-36 79 -95 117 -84 224 -174 299 -251 51 -53 69 -80 107 -171 25 -59 55 -125
66 -147 11 -21 20 -42 20 -45 0 -11 -44 7 -203 83 -112 54 -161 72 -168 65
-17 -17 14 -55 84 -104 187 -130 329 -262 359 -334 66 -158 82 -192 97 -209
15 -18 15 -18 -9 -11 -43 12 -234 94 -265 113 -22 14 -124 175 -393 624 l-363
605 53 54 c63 63 101 136 123 234 8 39 24 111 35 160 11 50 25 164 31 255 6
102 20 206 35 272 28 124 29 144 9 152 -9 3 -15 18 -15 38 0 31 -5 27 -60 -59
-33 -51 -62 -93 -65 -93 -2 0 -12 15 -21 33 -9 17 -47 82 -84 142 -37 61 -84
141 -104 178 -27 49 -42 67 -54 64 -9 -2 -16 -7 -16 -13 1 -5 5 -49 8 -99 6
-87 6 -89 -10 -60 -27 49 -65 84 -132 122 -45 25 -83 58 -128 112 -60 71 -117
121 -137 121 -5 0 5 -24 22 -54 29 -52 111 -236 111 -250 0 -4 -14 9 -31 29
-46 52 -168 147 -311 243 -105 70 -130 83 -142 73 -13 -11 -4 -28 59 -119 164
-235 305 -477 305 -524 0 -12 -13 -21 -41 -28 -22 -6 -57 -27 -78 -46 l-39
-34 -40 52 c-59 77 -135 210 -237 417 -69 140 -94 181 -109 181 -18 0 -18 -6
-12 -112 11 -170 34 -339 56 -409 10 -35 18 -65 16 -67 -5 -5 -138 175 -172
233 l-29 50 -3 -35 c-2 -23 12 -77 38 -149 35 -99 40 -123 40 -199 0 -74 4
-94 25 -130 24 -42 24 -42 2 -31 -12 7 -48 30 -80 52 -91 63 -97 31 -17 -88
15 -22 55 -92 89 -155 35 -63 69 -122 77 -131 28 -31 17 -39 -58 -39 -40 0
-90 -3 -111 -6 l-38 -7 31 -19 c17 -10 28 -23 25 -28 -8 -13 55 -42 149 -70
44 -12 150 -57 235 -99 86 -42 197 -89 246 -104 50 -16 119 -38 155 -49 94
-31 200 -34 278 -10 l62 20 24 -41 c14 -23 176 -310 361 -637 l337 -595 -12
-112 c-6 -61 -15 -124 -19 -140 l-8 -28 -13 25 c-7 14 -41 61 -75 105 -74 95
-98 141 -118 221 -17 67 -43 234 -52 339 -11 115 -65 160 -65 54 0 -64 -20
-281 -28 -314 -7 -23 -12 -18 -72 62 -36 48 -80 107 -99 131 -58 78 -95 217
-129 492 -15 123 -19 135 -37 135 -19 0 -20 -9 -26 -155 -4 -85 -10 -173 -13
-195 -11 -63 -28 -139 -34 -149 -10 -18 -72 320 -72 396 0 88 -17 179 -32 175
-6 -1 -16 14 -22 32 l-12 35 -28 -90 c-14 -49 -31 -99 -36 -110 -8 -20 -25 -6
-183 152 -129 129 -179 173 -191 168 -11 -4 -15 -12 -10 -23 19 -44 54 -143
54 -153 0 -6 -18 6 -40 25 -25 23 -60 42 -97 52 -111 31 -123 37 -197 91 -62
45 -138 84 -164 84 -4 0 12 -19 34 -42 46 -49 117 -134 160 -193 28 -39 29
-40 4 -24 -104 66 -189 102 -405 175 -71 24 -130 44 -131 44 -1 0 -4 -7 -8
-15 -6 -17 17 -39 189 -185 126 -107 302 -283 328 -328 l17 -30 -43 -25 c-24
-14 -52 -42 -62 -61 -11 -20 -25 -36 -31 -36 -37 0 -218 175 -406 392 -80 93
-123 135 -133 132 -22 -9 -20 -22 36 -177 54 -149 121 -298 161 -357 l23 -35
-40 30 c-76 56 -140 109 -187 154 -27 25 -48 40 -48 35 0 -30 29 -87 81 -159
43 -61 63 -101 84 -170 22 -74 34 -97 66 -127 22 -21 34 -36 27 -34 -7 3 -51
17 -97 31 -61 20 -85 24 -91 16 -6 -11 237 -266 318 -332 18 -15 29 -30 25
-32 -4 -3 -55 -19 -113 -37 l-105 -33 35 -12 c19 -7 34 -17 33 -23 -3 -15 34
-22 185 -32 76 -6 195 -23 267 -39 130 -28 130 -28 90 -39 -77 -21 -171 -32
-322 -39 -139 -6 -153 -8 -153 -24 0 -22 3 -23 180 -44 275 -33 387 -66 493
-147 38 -29 95 -72 128 -95 46 -32 55 -43 42 -47 -32 -10 -224 -26 -304 -26
-69 0 -79 -2 -79 -18 0 -29 35 -42 143 -52 139 -15 269 -36 348 -58 51 -14 89
-35 160 -89 52 -38 107 -78 122 -88 15 -10 26 -19 24 -22 -6 -6 -236 -33 -280
-33 -33 0 -128 49 -566 291 -289 160 -540 300 -557 310 l-31 19 18 52 c29 83
24 163 -17 307 -46 160 -81 250 -153 386 -32 61 -72 153 -89 206 -40 124 -62
171 -79 165 -7 -3 -20 9 -30 27 l-18 32 -2 -95 c-2 -52 -5 -105 -8 -117 -5
-22 -6 -22 -58 10 -28 19 -96 57 -151 86 -54 29 -126 70 -159 92 -52 32 -64
36 -75 25 -12 -11 -8 -21 23 -61 20 -26 42 -60 51 -76 l14 -29 -46 25 c-40 21
-61 25 -135 25 -75 0 -102 5 -185 35 -58 21 -115 35 -143 35 l-46 0 60 -36
c63 -38 226 -156 222 -160 -1 -2 -36 6 -77 17 -87 23 -283 47 -420 51 -79 3
-95 1 -98 -13 -2 -11 43 -37 169 -98 206 -98 344 -174 429 -237 l62 -46 -35
-36 c-19 -21 -41 -56 -48 -79 -7 -24 -16 -43 -21 -43 -21 0 -141 57 -228 108
-52 30 -168 104 -257 163 -136 91 -163 106 -173 94 -10 -12 -1 -32 50 -107 99
-146 170 -238 236 -306 75 -78 63 -77 -115 9 -68 32 -125 59 -127 59 -3 0 2
-13 11 -30 8 -16 53 -61 100 -100 62 -52 95 -88 124 -138 44 -76 71 -104 121
-127 34 -16 32 -16 -66 -10 -86 5 -102 3 -107 -10 -5 -11 8 -22 46 -41 29 -15
106 -59 172 -99 66 -40 140 -82 164 -94 24 -13 39 -26 35 -31 -5 -4 -49 -33
-98 -64 -83 -52 -87 -56 -57 -56 18 0 39 -6 47 -14 16 -17 42 -14 174 16 47
10 156 23 243 28 171 10 223 18 399 60 146 35 199 60 267 127 l53 54 47 -27
c437 -254 1069 -630 1078 -641 12 -16 95 -201 108 -241 l7 -23 -49 24 c-26 14
-92 44 -145 67 -88 38 -104 49 -175 123 -62 64 -194 230 -241 302 -12 18 -48
33 -61 26 -9 -6 10 -53 68 -172 45 -90 81 -172 81 -182 0 -15 -6 -14 -52 9
-29 15 -81 37 -116 50 -35 14 -85 35 -111 48 -60 31 -198 175 -319 334 -51 67
-97 122 -102 122 -26 0 -15 -34 53 -168 71 -140 127 -275 127 -308 0 -9 -11
-2 -27 18 -15 18 -64 74 -108 123 -45 50 -111 136 -148 193 -61 93 -75 108
-101 103 -5 -1 -19 8 -32 20 -13 12 -24 20 -24 16 0 -3 11 -52 25 -108 13 -57
22 -105 20 -107 -3 -3 -16 0 -30 6 -14 6 -91 27 -172 47 -81 19 -176 44 -212
55 -96 30 -98 12 -8 -73 40 -37 63 -64 52 -59 -45 21 -87 21 -162 1 -67 -17
-96 -20 -203 -14 -114 5 -208 -4 -170 -18 8 -3 57 -19 107 -36 51 -17 116 -42
145 -55 l53 -24 -80 -1 c-85 -1 -208 -17 -392 -52 -96 -18 -113 -24 -113 -40
0 -21 27 -30 170 -54 211 -36 446 -97 523 -137 l38 -19 -22 -36 c-14 -23 -22
-53 -23 -85 l-1 -50 -70 5 c-89 7 -211 40 -454 122 -262 89 -280 81 -118 -57
140 -119 224 -181 301 -224 36 -20 66 -37 66 -38 0 -8 -259 33 -325 51 -18 5
-17 3 5 -22 14 -15 71 -49 127 -75 78 -37 118 -64 172 -114 55 -52 78 -67 111
-72 57 -9 39 -21 -55 -37 -67 -11 -80 -16 -80 -32 0 -15 19 -23 110 -46 61
-14 148 -38 195 -52 47 -15 104 -29 128 -33 23 -4 42 -10 42 -13 0 -4 -16 -23
-36 -42 -20 -18 -53 -54 -74 -79 l-38 -46 62 1 c54 1 74 7 152 49 86 47 404
160 404 144 0 -21 -243 -198 -370 -269 -43 -24 -47 -31 -27 -47 9 -8 34 -1 92
25 228 100 400 155 490 155 33 -1 111 -8 173 -17 63 -9 123 -14 134 -12 19 5
19 4 -3 -20 -22 -23 -275 -197 -300 -205 -5 -2 -7 -11 -4 -20 10 -27 57 -16
190 42 135 59 270 106 331 116 22 3 100 -2 173 -11 73 -9 140 -14 149 -11 33
11 -70 -73 -171 -140 -56 -37 -107 -73 -113 -80 -8 -10 -155 -14 -656 -20
l-646 -7 -7 42 c-15 91 -67 171 -182 277 -131 122 -227 197 -339 264 -46 28
-114 79 -151 113 -98 90 -140 120 -159 113 -8 -3 -28 1 -44 9 -29 15 -29 14
25 -87 l54 -103 -249 0 c-204 0 -251 -3 -255 -14 -7 -17 -15 -12 80 -56 l80
-38 -56 -8 c-36 -5 -79 -21 -118 -44 -73 -43 -100 -52 -200 -66 -41 -6 -95
-21 -119 -33 l-45 -23 99 -7 c54 -3 135 -11 179 -18 l80 -11 -75 -18 c-87 -21
-227 -77 -381 -154 -86 -44 -107 -58 -102 -71 5 -15 18 -16 97 -10 377 27 630
26 658 -2 6 -6 6 -18 -2 -32 -12 -23 -9 -98 4 -131 10 -23 -17 -29 -174 -36
-114 -5 -280 2 -527 22 -40 4 -52 1 -57 -12 -4 -9 -5 -17 -4 -18 2 -2 53 -27
113 -58 138 -68 327 -144 383 -153 93 -15 24 -31 -183 -43 l-110 -6 41 -22
c23 -12 85 -29 139 -38 80 -13 113 -24 174 -58 58 -32 90 -43 136 -47 l60 -5
-88 -43 c-53 -25 -87 -47 -84 -55 3 -9 66 -12 254 -12 218 0 250 -2 245 -15
-3 -8 -27 -54 -53 -103 -26 -48 -45 -87 -43 -87 3 0 18 7 34 15 18 9 30 11 30
5 0 -20 60 20 143 96 45 41 126 102 180 135 214 132 447 348 485 451 11 30 24
71 27 91 l7 37 96 0 c150 0 1551 -19 1802 -25 124 -2 279 -5 345 -5 115 0 118
-1 95 -17 -14 -9 -27 -18 -29 -19 -2 -2 2 -10 8 -18 14 -17 43 -11 118 28 49
24 60 26 185 25 73 -1 157 -4 187 -7 l55 -7 -57 -43 c-38 -28 -54 -47 -51 -57
8 -19 43 -19 69 -2 11 8 56 33 100 57 84 46 113 52 320 66 l80 5 -50 -48 c-28
-26 -69 -64 -93 -83 -33 -27 -40 -38 -32 -50 11 -16 8 -17 145 61 94 55 139
69 213 69 37 0 73 -4 79 -8 9 -6 -7 -28 -52 -72 -36 -36 -65 -68 -65 -73 0
-23 35 -14 87 21 71 48 156 92 179 92 13 0 15 -6 10 -32 -4 -18 -11 -78 -17
-133 -19 -181 7 -350 75 -485 18 -36 38 -76 43 -90 37 -89 163 -210 285 -271
31 -16 59 -32 61 -36 3 -5 6 -109 8 -233 l4 -225 -143 -216 c-78 -119 -142
-218 -142 -221 0 -3 22 -19 48 -35 44 -27 48 -33 45 -60 -7 -43 30 -79 160
-157 130 -78 159 -87 192 -56 13 12 26 32 29 44 14 55 68 662 74 838 8 187 9
199 31 222 12 13 31 26 41 29 23 6 30 -33 30 -163 -1 -80 68 -898 76 -908 1
-2 16 4 33 12 37 19 42 20 35 3 -8 -22 13 -65 41 -83 24 -15 29 -16 66 -1 60
24 236 135 259 164 40 51 30 77 -105 280 l-125 188 3 250 c3 304 -1 294 132
371 306 174 399 446 306 889 -11 50 -16 94 -11 98 11 12 85 -22 160 -73 55
-37 90 -46 90 -23 0 5 -29 37 -65 73 -45 44 -61 66 -52 72 6 4 42 8 79 8 74 0
119 -14 213 -69 137 -78 134 -77 145 -61 8 12 1 23 -32 50 -24 19 -65 56 -92
81 l-49 46 106 7 c127 8 167 -3 320 -89 101 -57 131 -65 140 -41 4 10 -21 36
-74 78 l-80 63 180 3 181 2 82 -41 c107 -54 133 -61 149 -43 13 16 7 23 -61
67 l-35 22 243 3 c201 2 247 0 272 -13 36 -19 60 -19 60 -1 0 10 30 15 133 20
106 5 1357 21 1631 21 l69 0 17 -60 c28 -101 58 -145 170 -253 122 -117 216
-190 338 -265 47 -29 124 -87 171 -130 90 -81 135 -112 151 -102 5 3 23 -1 41
-10 l31 -16 -56 103 -55 104 249 -1 c138 0 251 3 251 8 1 4 2 11 3 17 1 5 -36
27 -81 49 -46 22 -83 42 -83 43 0 2 22 3 49 3 39 0 69 10 143 47 73 38 112 51
184 62 92 14 197 55 144 56 -46 0 -254 21 -290 29 -33 6 -31 8 46 28 141 38
479 193 471 216 -4 13 -18 13 -422 2 -294 -8 -353 -2 -338 38 10 28 10 106 0
134 -7 19 -4 24 20 30 38 11 469 8 615 -3 116 -9 128 -7 128 22 0 7 -227 114
-322 153 -40 16 -100 37 -133 46 -105 30 -105 31 -5 43 52 6 130 13 172 14 43
2 78 4 78 5 0 0 -16 11 -36 22 -20 12 -76 28 -130 36 -113 19 -112 18 -197 68
-56 33 -78 40 -122 41 -30 0 -55 2 -55 4 0 2 39 21 86 43 48 23 83 46 81 52
-3 9 -75 13 -255 17 l-251 5 54 98 c37 67 49 97 37 91 -9 -4 -31 -8 -49 -9
-36 -2 -39 -4 -148 -101 -44 -40 -118 -96 -165 -125 -127 -78 -220 -150 -333
-255 -116 -108 -171 -189 -189 -276 l-12 -59 -436 6 c-239 3 -540 8 -669 11
l-234 6 -81 55 c-123 84 -170 124 -155 134 7 4 16 6 20 3 4 -2 60 3 125 12 66
9 138 13 162 10 61 -8 196 -55 337 -116 133 -58 180 -69 190 -42 3 9 1 18 -4
20 -25 8 -278 182 -300 205 -22 24 -22 25 -3 20 11 -2 71 3 133 12 146 21 209
21 289 0 83 -21 249 -83 365 -134 66 -30 93 -37 102 -29 20 16 16 22 -27 47
-127 71 -370 248 -370 269 0 16 318 -97 404 -144 78 -42 98 -48 152 -49 l62
-1 -38 46 c-21 25 -54 61 -74 79 -20 19 -36 38 -36 42 0 3 19 9 43 13 23 4 80
18 127 33 47 14 135 38 195 52 91 23 110 31 110 46 0 16 -13 21 -80 32 -94 16
-112 28 -55 37 33 5 56 20 111 72 54 50 94 77 172 114 56 26 113 60 127 75
l25 28 -28 -7 c-106 -25 -317 -58 -317 -49 0 1 21 14 48 27 67 34 190 124 314
230 167 142 151 151 -113 61 -243 -82 -365 -115 -454 -122 l-70 -5 -1 50 c-1
32 -9 62 -23 85 l-22 36 38 19 c77 40 276 92 498 132 172 31 195 37 195 59 0
16 -17 22 -112 40 -185 35 -308 51 -393 52 l-80 1 53 24 c29 13 94 38 145 55
50 17 99 33 107 36 38 14 -56 23 -170 18 -107 -6 -136 -3 -203 14 -76 20 -119
20 -162 -2 -27 -13 51 68 92 96 18 12 31 28 28 35 -8 21 116 14 237 -13 116
-26 178 -32 178 -16 0 6 17 11 37 13 l38 3 -100 63 -99 64 40 17 c21 10 86 47
144 83 58 35 138 82 178 103 65 34 86 56 65 68 -5 2 -44 1 -88 -3 -44 -4 -84
-5 -88 -3 -5 3 7 13 25 22 33 18 60 50 121 145 18 28 65 77 106 110 41 34 85
78 98 100 14 21 21 37 16 35 -4 -2 -39 -20 -78 -40 -70 -37 -170 -80 -213 -94
-16 -5 -8 8 29 42 53 49 175 207 267 345 43 64 49 78 37 88 -11 9 -51 -13
-209 -118 -173 -115 -379 -230 -443 -247 -19 -5 -23 -2 -23 15 0 28 -26 78
-57 112 -14 14 -22 31 -19 37 19 30 218 147 418 245 177 86 228 115 228 130 0
18 -6 19 -122 12 -167 -9 -333 -32 -409 -56 -35 -10 -64 -18 -66 -16 -4 4 121
97 206 152 l74 49 -35 3 c-24 2 -68 -10 -129 -34 -81 -32 -109 -38 -204 -43
-89 -5 -117 -10 -148 -28 l-38 -23 12 23 c6 12 29 46 51 75 35 48 44 82 20 82
-4 0 -30 -14 -58 -31 -27 -18 -114 -68 -194 -111 -80 -44 -152 -86 -161 -94
-14 -13 -17 -7 -23 62 -3 42 -6 95 -6 118 l0 41 -20 -30 c-11 -16 -25 -30 -31
-30 -20 0 -39 -38 -70 -138 -17 -54 -63 -165 -104 -245 -69 -139 -135 -303
-135 -340 -1 -44 -13 -45 -121 -12 -57 18 -108 34 -112 37 -4 2 7 17 25 32 81
66 324 321 318 332 -6 8 -30 4 -91 -16 -46 -14 -90 -28 -97 -31 -7 -2 5 13 27
34 32 30 44 53 66 127 21 69 41 109 84 170 52 72 81 129 81 159 0 5 -21 -10
-47 -35 -48 -45 -112 -98 -188 -154 l-40 -30 23 35 c41 61 108 210 161 358 56
155 58 167 36 176 -10 3 -53 -39 -135 -134 -187 -216 -367 -390 -404 -390 -6
0 -20 16 -31 36 -10 19 -38 47 -62 61 l-43 25 17 30 c26 44 200 219 328 327
173 148 195 169 189 186 -4 8 -7 15 -8 15 -1 0 -60 -20 -131 -44 -216 -73
-301 -109 -405 -175 -25 -16 -24 -15 4 24 43 59 114 144 160 193 22 23 38 42
34 42 -26 0 -102 -39 -165 -85 -48 -35 -97 -61 -132 -71 -110 -30 -124 -37
-164 -73 l-40 -36 7 30 c4 17 18 57 31 89 21 52 22 61 9 71 -12 9 -3 17 53 43
37 18 120 50 183 70 88 28 117 42 125 59 5 12 20 28 34 35 24 13 23 13 -20 20
-24 3 -77 7 -117 7 l-73 1 29 43 c16 23 57 94 92 157 35 63 79 138 97 167 58
91 39 101 -60 33 -41 -27 -77 -50 -80 -50 -3 0 5 19 18 43 18 33 24 62 28 142
4 84 10 115 41 194 24 60 36 106 34 128 -3 35 -3 35 -70 -63 -37 -55 -83 -117
-102 -139 l-35 -40 20 63 c23 77 47 254 56 414 6 112 5 118 -13 118 -15 0 -34
-30 -83 -132 -105 -223 -224 -429 -284 -495 l-20 -23 -38 35 c-21 19 -56 39
-78 45 -23 6 -41 15 -41 21 0 45 128 274 255 454 106 151 127 184 120 195 -12
19 -33 9 -151 -71 -161 -110 -229 -163 -291 -227 -29 -29 -53 -51 -53 -49 0
11 58 143 96 219 24 48 42 88 39 88 -19 0 -74 -48 -132 -115 -47 -55 -91 -93
-138 -122 -69 -41 -125 -95 -125 -120 0 -7 -5 -13 -11 -13 -7 0 -8 18 -5 53
12 114 12 131 -5 135 -11 2 -27 -18 -52 -65 -20 -37 -72 -126 -116 -197 -45
-72 -81 -136 -81 -143 0 -30 -22 -8 -77 79 -53 84 -58 90 -61 64 -2 -16 -10
-36 -18 -44 -16 -16 -14 -32 18 -172 11 -47 23 -155 28 -241 9 -147 36 -321
59 -381 6 -15 6 -30 2 -32 -12 -8 -178 -46 -197 -46 -12 0 -14 5 -9 18 4 9 25
82 45 162 20 80 47 178 60 219 33 106 15 111 -73 18 -37 -40 -64 -63 -59 -52
21 45 21 86 1 162 -18 67 -20 95 -15 198 4 66 3 134 -2 150 -11 35 -8 41 -58
-105 -20 -57 -44 -120 -55 -140 l-18 -35 -1 75 c-1 104 -58 465 -80 500 -19
31 -36 0 -54 -96 -52 -287 -124 -561 -160 -607 -13 -17 -15 -17 -51 5 -26 15
-54 22 -88 22 l-50 0 6 60 c8 81 45 218 107 401 87 255 90 263 75 275 -10 8
-33 -11 -100 -87 -91 -103 -214 -263 -253 -329 l-23 -39 6 70 c3 39 15 109 26
157 24 110 24 106 -7 77 -15 -13 -47 -66 -71 -118 -34 -73 -60 -112 -113 -168
-55 -57 -71 -81 -76 -113 -4 -22 -10 -40 -14 -40 -9 0 -10 6 -31 118 -18 98
-36 81 -75 -69 -18 -69 -44 -163 -58 -208 -14 -45 -26 -95 -26 -112 0 -16 -3
-29 -8 -29 -4 0 -45 35 -91 77 l-84 77 7 -37 c4 -24 3 -37 -4 -37 -18 0 0 -50
55 -155 29 -55 72 -158 95 -230 23 -71 47 -139 52 -150 27 -58 -140 141 -216
258 -49 76 -93 137 -98 137 -24 0 -15 -42 32 -148 68 -152 128 -334 136 -408
4 -36 0 -98 -10 -160 -9 -56 -16 -123 -16 -150 l-1 -49 -30 35 c-22 26 -166
235 -207 299 -1 3 -8 -1 -14 -7 -20 -20 -16 -55 12 -112 46 -93 127 -302 140
-361 16 -72 9 -187 -12 -203 -8 -6 -40 -10 -72 -8 l-57 4 -47 67 c-26 37 -53
66 -60 63 -9 -3 -12 53 -12 250 0 139 -3 424 -7 633 l-6 380 70 18 c39 10 93
32 121 50 82 52 272 264 379 422 51 77 130 180 174 229 63 70 79 94 75 111 -3
12 1 30 9 41 28 37 14 34 -78 -16 -52 -27 -98 -50 -103 -50 -5 0 -9 104 -9
245 0 221 -2 245 -17 245 -10 0 -27 -23 -47 -65 -50 -107 -56 -112 -56 -45 -1
48 -7 67 -42 126 -48 81 -49 86 -67 196 -8 47 -23 103 -34 124 l-20 39 -6 -80
c-4 -44 -12 -123 -18 -175 l-12 -95 -13 50 c-28 102 -66 198 -140 347 -41 84
-76 154 -77 156 -2 1 -10 0 -19 -4 -13 -5 -16 -17 -12 -57 21 -265 27 -399 22
-515 -7 -172 -11 -186 -46 -176 -34 11 -99 10 -133 0 -26 -8 -27 -6 -35 41
-12 72 -9 379 6 547 12 126 12 149 0 157 -8 5 -17 9 -20 9 -3 0 -40 -71 -81
-157z m106 -1704 l56 -12 0 -358 c0 -282 -3 -358 -12 -355 -8 3 -50 -51 -98
-125 -46 -70 -99 -146 -117 -166 l-32 -38 -1 49 c0 27 -7 94 -16 150 -10 62
-14 124 -10 160 8 74 68 256 136 408 47 106 56 148 32 148 -5 0 -49 -61 -98
-137 -76 -117 -243 -316 -216 -258 5 11 29 79 52 150 23 72 66 175 95 230 55
104 73 155 55 155 -13 0 -13 12 0 44 l9 25 55 -28 c30 -16 80 -35 110 -42z
m2213 -556 c20 -30 51 -66 69 -80 19 -14 34 -29 34 -34 0 -13 -599 -1010 -619
-1032 -18 -18 -236 -119 -284 -131 l-29 -7 20 28 c10 15 39 75 63 132 32 77
57 119 94 160 51 56 183 164 292 240 70 49 101 87 84 104 -7 7 -56 -11 -168
-65 -159 -76 -203 -94 -203 -83 0 3 9 24 20 45 11 22 41 88 66 147 37 88 56
119 102 167 73 75 205 185 310 259 76 54 95 78 73 91 -5 4 -60 -21 -123 -53
-126 -66 -269 -127 -326 -137 l-37 -7 65 53 c36 30 92 79 125 109 33 31 93 75
133 99 86 51 144 100 136 114 -3 5 2 18 12 29 17 18 18 17 36 -38 11 -31 36
-81 55 -110z m857 -55 c-92 -98 -295 -294 -299 -287 -8 11 -55 164 -55 176 0
7 19 17 43 23 73 19 240 80 297 110 30 15 57 29 59 29 2 1 -18 -23 -45 -51z
m-614 -115 c26 -8 77 -13 120 -12 l75 2 -2 -29 c-2 -16 -7 -87 -12 -159 -9
-126 -63 -417 -73 -399 -6 10 -23 85 -34 149 -3 22 -9 110 -13 195 -6 146 -7
155 -26 155 -18 0 -22 -12 -37 -135 -34 -275 -71 -414 -129 -492 -19 -24 -63
-83 -99 -131 -60 -80 -65 -85 -72 -62 -8 33 -28 250 -28 314 0 109 -55 60 -65
-59 -11 -119 -43 -311 -63 -377 -20 -64 -37 -92 -111 -183 -24 -30 -54 -70
-65 -89 l-20 -34 -8 28 c-4 16 -12 81 -19 144 l-11 116 296 522 c351 620 317
565 336 557 8 -4 35 -13 60 -21z m230 -8 c0 -8 -4 -15 -10 -15 -5 0 -7 7 -4
15 4 8 8 15 10 15 2 0 4 -7 4 -15z m-2657 -630 c-9 -5 -28 -22 -42 -37 -28
-31 -62 -36 -81 -12 -8 8 -15 50 -18 92 -5 96 11 160 94 359 l59 143 3 -268
c2 -245 1 -268 -15 -277z m-1151 -634 c61 -58 72 -77 118 -184 28 -65 49 -121
46 -124 -9 -9 -104 28 -110 43 -3 8 -8 43 -12 79 -6 53 -10 65 -25 65 -11 0
-19 -9 -21 -22 -2 -17 -28 18 -101 139 -53 88 -97 164 -97 167 0 11 134 -96
202 -163z m2642 -3 c-74 -121 -100 -157 -102 -140 -2 13 -10 22 -21 22 -15 0
-20 -12 -25 -67 -4 -38 -10 -73 -14 -79 -8 -13 -61 -37 -104 -47 l-27 -7 32
62 c18 35 44 92 60 129 20 47 44 82 90 126 62 61 199 172 206 167 1 -1 -41
-76 -95 -166z m2412 65 c-30 -99 -30 -191 0 -275 8 -23 11 -45 7 -49 -5 -4
-240 -136 -524 -293 -498 -276 -518 -286 -571 -286 -56 0 -288 26 -295 33 -2
3 23 23 56 45 32 22 83 59 112 81 91 69 190 97 444 126 149 16 185 27 185 57
0 16 -9 18 -79 18 -80 0 -272 16 -304 26 -13 4 -4 15 42 47 33 23 90 66 128
95 106 81 218 114 493 147 177 21 180 22 180 44 0 16 -14 18 -152 24 -151 6
-312 27 -343 44 -23 13 286 71 415 77 115 7 153 14 144 27 -3 5 5 13 18 18 36
15 50 13 44 -6z m-2251 -50 c-11 -84 -37 -197 -52 -226 -8 -16 -46 -70 -84
-120 -38 -50 -69 -97 -69 -104 0 -7 -4 -13 -9 -13 -17 0 -24 88 -11 121 7 16
34 48 59 69 40 34 44 42 35 58 -10 16 -1 38 58 140 38 67 72 122 74 122 3 0 2
-21 -1 -47z m-3001 -78 c50 -86 65 -121 60 -139 -4 -18 1 -28 25 -45 17 -12
43 -42 57 -67 22 -37 25 -52 19 -89 -7 -48 -19 -58 -30 -25 -3 11 -36 59 -72
108 -36 48 -71 98 -78 112 -19 37 -63 260 -51 260 2 0 34 -52 70 -115z m5346
-299 c22 -24 67 -58 100 -75 63 -34 69 -41 46 -61 -8 -6 -43 -55 -77 -108 -35
-53 -99 -137 -144 -187 -44 -49 -93 -105 -108 -123 -16 -20 -27 -27 -27 -18 0
33 56 168 127 308 68 134 79 168 53 168 -5 0 -51 -55 -102 -122 -121 -159
-259 -303 -319 -334 -26 -13 -76 -34 -111 -48 -35 -13 -87 -35 -116 -50 -46
-23 -52 -24 -52 -9 0 10 36 92 80 182 81 165 86 192 36 168 -12 -6 -38 -33
-57 -61 -60 -88 -185 -239 -245 -297 -46 -43 -80 -65 -149 -94 -49 -20 -111
-47 -138 -59 l-47 -23 6 21 c4 12 27 67 53 124 l46 102 544 320 c299 176 548
320 552 320 5 0 27 -20 49 -44z m-2800 -125 c-5 -11 -15 -23 -22 -27 -7 -5 -8
-2 -3 7 21 37 44 55 25 20z m3265 -47 c60 -9 117 -18 125 -21 27 -8 -12 -22
-185 -64 -91 -22 -177 -45 -191 -51 -13 -6 -26 -9 -29 -7 -4 4 28 152 40 186
3 8 21 6 67 -7 34 -11 112 -27 173 -36z m-5395 16 c6 -11 8 -20 6 -20 -3 0
-10 9 -16 20 -6 11 -8 20 -6 20 3 0 10 -9 16 -20z m-1420 -405 c77 -9 190 -35
220 -50 14 -7 65 -43 114 -79 49 -36 98 -68 109 -72 28 -9 5 -21 -54 -29 -67
-9 -82 -2 -123 60 -26 39 -40 53 -52 48 -9 -3 -14 -13 -11 -24 3 -11 3 -19 0
-19 -8 0 -313 172 -313 177 0 2 12 2 28 -1 15 -3 52 -8 82 -11z m5075 6 c-6
-4 -88 -52 -184 -105 -109 -60 -170 -89 -166 -78 16 38 16 49 1 55 -11 5 -28
-11 -57 -55 l-42 -61 -57 6 c-90 10 -98 16 -52 42 21 12 69 45 106 74 37 28
80 57 94 65 64 32 386 84 357 57z m-5033 -206 c71 -41 86 -54 82 -69 -8 -23
11 -36 54 -36 51 0 111 -36 128 -75 8 -19 14 -42 14 -50 0 -15 -4 -14 -32 3
-18 11 -76 37 -128 58 -104 42 -158 86 -254 212 l-49 64 49 -29 c27 -15 88
-50 136 -78z m4957 -1 c-83 -100 -115 -124 -234 -174 -55 -23 -110 -48 -122
-56 -20 -13 -23 -13 -23 0 0 37 22 66 73 95 30 17 64 31 75 31 32 0 52 11 52
29 0 10 43 41 118 83 64 38 118 68 120 68 2 0 -25 -34 -59 -76z m-564 -148
c-41 -28 -205 -114 -205 -108 1 15 123 95 163 108 55 17 66 17 42 0z m-3822
-32 c31 -19 57 -37 57 -40 0 -5 -110 55 -124 68 -25 21 15 5 67 -28z m-676
-995 c57 -6 110 -8 119 -5 30 12 9 -13 -61 -68 l-70 -56 -185 0 c-102 0 -222
-3 -267 -7 -85 -6 -106 3 -55 24 15 6 77 32 137 58 116 49 214 76 255 70 14
-2 71 -9 127 -16z m5278 6 c33 -8 110 -35 170 -60 l110 -46 -264 5 -263 5 -49
38 c-54 41 -60 52 -26 47 12 -3 72 2 132 10 61 7 115 14 120 15 6 0 37 -6 70
-14z m-4696 -101 c3 -2 0 -8 -5 -13 -12 -11 -432 -26 -421 -15 5 5 32 17 60
26 44 15 75 17 207 12 85 -3 157 -8 159 -10z m4189 9 c-21 -2 -57 -2 -80 0
-24 2 -7 4 37 4 44 0 63 -2 43 -4z"/>
</g>
</svg>
