<?xml version="1.0" encoding="iso-8859-1"?>
<!-- Uploaded to: SVG Repo, www.svgrepo.com, Generator: SVG Repo Mixer Tools -->
<svg height="800px" width="800px" version="1.1" id="Layer_1" xmlns="http://www.w3.org/2000/svg" xmlns:xlink="http://www.w3.org/1999/xlink" 
	 viewBox="0 0 512.002 512.002" xml:space="preserve">
<g>
	<path style="fill:#BA6B24;" d="M382.79,7.694c-8.763,6.059-15.791,12.247-21.306,18.554c-4.807,5.492-8.456,11.078-11.125,16.759
		c-8.421,17.928-6.945,36.719-0.413,56.135c-48.317,4.358-65.713,79.225-114.018,76.862c-14.314-0.697-59.537-75.575-73.851-76.862
		c6.531-19.416,8.007-38.207-0.413-56.135c-2.669-5.669-6.319-11.255-11.125-16.759c-5.515-6.307-12.543-12.495-21.306-18.554
		c27.589-3.342,55.178-5.61,82.78-6.767C268.937-1.471,325.863,0.785,382.79,7.694z"/>
	<path style="fill:#BA6B24;" d="M349.398,99.214c49.651,31.132,82.673,86.358,82.673,149.296
		c0,68.654-39.293,155.119-96.621,200.022c-11.255,8.811-11.043,25.77,0.189,34.605c10.606,8.326,20.586,18.07,29.821,28.865
		H146.542c9.236-10.795,19.216-20.538,29.821-28.865c11.244-8.834,11.456-25.794,0.201-34.605
		c-57.34-44.903-96.633-131.368-96.633-200.022c0-62.938,33.022-118.164,82.685-149.296"/>
</g>
<g>
	<path style="fill:#A55C20;" d="M218.578,448.532c-27.012-44.903-45.522-131.368-45.522-200.022
		c0-62.938,15.557-118.164,38.952-149.296h-49.393c-49.663,31.132-82.685,86.358-82.685,149.296
		c0,68.654,39.293,155.119,96.633,200.022c11.255,8.811,11.043,25.77-0.201,34.605c-10.606,8.326-20.586,18.07-29.821,28.865h57.894
		c4.351-10.795,9.053-20.538,14.049-28.865C223.781,474.301,223.881,457.342,218.578,448.532z"/>
	<path style="fill:#A55C20;" d="M212.007,99.214l-6.992,2.917c-14.314-0.697-28.629-1.701-42.943-2.988
		c10.972-32.62,7.677-63.446-32.845-91.448c27.589-3.342,55.178-5.61,82.78-6.767C242.69,53.531,212.007,99.214,212.007,99.214z"/>
	<path style="fill:#A55C20;" d="M361.484,26.248c-4.807,5.492-8.456,11.078-11.125,16.759c-62.631-5.716-126.077-5.716-188.696,0
		c-2.669-5.669-6.319-11.255-11.125-16.759l5.515-0.52c66.316-6.307,133.588-6.307,199.916,0L361.484,26.248z"/>
	<path style="fill:#A55C20;" d="M432.071,257.368H79.931c-4.893,0-8.858-3.966-8.858-8.858s3.965-8.858,8.858-8.858h352.141
		c4.893,0,8.858,3.966,8.858,8.858S436.964,257.368,432.071,257.368z"/>
	<path style="fill:#A55C20;" d="M422.009,322.443H89.993c-4.893,0-8.858-3.966-8.858-8.858c0-4.892,3.965-8.858,8.858-8.858h332.016
		c4.893,0,8.858,3.966,8.858,8.858C430.866,318.477,426.901,322.443,422.009,322.443z"/>
</g>
</svg>